<svg viewBox="0 0 178 25" xmlns="http://www.w3.org/2000/svg"><style>.bast0{fill:#80b341}.bast1{fill:#131213}</style><path class="bast0" d="M15.2 3.8c-.6-.3-2.2-.1-4.2.5-3.4 2.4-6.3 5.8-6.5 11.3 0 .1-.4 0-.4-.1-.9-1.8-1.3-3.7-.5-6.4.1 0-.4-.3-.5-.3-.1.2-.8.9-1.3 1.7-2.3 4-.8 9.2 3.3 11.5s9.2.8 11.5-3.3c2.6-4.7.1-13.9-1.4-14.9"/><path class="bast1" d="M29.8 6.2c-4.8 0-8.3 3.6-8.3 8.6s3.5 8.5 8.5 8.5c2.5 0 4.5-.8 6.1-2.4.5-.5.5-1 .5-1.2 0-.8-.6-1.4-1.4-1.4-.4 0-.8.2-1.2.5-.9.8-2.1 1.7-4.1 1.7-2.7 0-5-2.1-5.1-4.7h10.9c1.2 0 1.8-.6 1.8-1.7 0-.3 0-.6-.1-1.1-.6-4.4-3.4-6.8-7.6-6.8m0 2.6c2.6 0 4.3 1.7 4.4 4.4h-9.3c.2-2.6 2.3-4.4 4.9-4.4m18.1-2.6c-2.2 0-4.4 1.2-5.2 3V8.1c0-1.7-1.3-1.8-1.6-1.8-.8 0-1.6.5-1.6 1.8v13.1c0 1.7 1.4 1.8 1.7 1.8s1.7-.1 1.7-1.8v-7c0-3.1 1.7-5.2 4.2-5.2 2.4 0 3.6 1.6 3.6 4.8v7.4c0 1.7 1.4 1.8 1.7 1.8s1.7-.1 1.7-1.8v-8.4c-.1-3.3-1.7-6.6-6.2-6.6m21.1 0c-.8 0-1.3.4-1.7 1.3L62.8 19 58.3 7.7c-.4-.9-.9-1.3-1.7-1.3-.9 0-1.7.7-1.7 1.6 0 .2 0 .5.2.9l5.3 12.3C61 22.7 62 23 62.8 23c.7 0 1.8-.3 2.4-1.8l5.3-12.4c.2-.5.2-.8.2-1-.1-.8-.8-1.6-1.7-1.6m9.6 0c-2.1 0-4.1.6-5.6 1.7-.5.3-.7.8-.7 1.3 0 .7.6 1.3 1.3 1.3.3 0 .7-.1 1-.4 1.3-.8 2.4-1.2 3.7-1.2 2.5 0 3.9 1.3 3.9 3.4v.4c-5.5 0-11.1.7-11.1 5.5 0 3.5 3 5 5.9 5 2.3 0 4.2-.9 5.4-2.7v.8c0 1.3.8 1.7 1.6 1.7.2 0 1.5 0 1.5-1.7v-8.8c-.1-4.1-2.6-6.3-6.9-6.3m2.9 8.8h.7v.8c0 2.8-1.8 4.6-4.5 4.6-.7 0-3.2-.2-3.2-2.4 0-2.7 4-3 7-3M94 9.3c1.5 0 1.5-1.1 1.5-1.4 0-.7-.4-1.4-1.5-1.4h-3v-3c0-1.4-.9-1.8-1.6-1.8-.3 0-1.7.1-1.7 1.8v14.4c0 3.3 1.6 5.1 4.7 5.1.8 0 1.6-.1 2.1-.4.6-.3.9-.8.9-1.3 0-.8-.6-1.3-1.3-1.3-.1 0-.4 0-.6.1h-.6c-1.3 0-1.8-.8-1.8-2.6V9.3H94zm11-3.1c-5 0-8.7 3.6-8.7 8.5 0 2.4.9 4.6 2.5 6.1 1.6 1.6 3.8 2.4 6.2 2.4 5 0 8.7-3.7 8.7-8.6s-3.6-8.4-8.7-8.4m0 14.2c-3.4 0-5.2-2.9-5.2-5.7 0-3.9 2.7-5.7 5.2-5.7s5.2 1.8 5.2 5.7c.1 3.8-2.7 5.7-5.2 5.7"/><path class="bast0" d="M124.1 21.1c-1.6.2-2.5.2-2.9-.5-.3-.4-.5-1.2-.5-2.2V7.8h3.1c.3 0 .5-.2.5-.5v-.7c0-.3-.2-.5-.5-.5h-3.1V2.2c0-.3-.2-.5-.5-.5h-.8c-.3 0-.5.2-.5.5V6h-2.4c-.3 0-.5.2-.5.5v.8c0 .3.2.5.5.5h2.4v10.8c0 1.5.3 2.6.9 3.3.6.8 1.5 1.1 2.8 1.1.8 0 1.4-.1 1.8-.2.2-.1.4-.3.3-.6l-.1-.7c0-.3-.3-.4-.5-.4m13.9-15h-.8c-.3 0-.5.2-.5.5v11c-.2 1.2-.8 2.1-1.6 2.8-.8.6-2 1-3.4 1-1.3 0-2.2-.4-2.8-1.1-.7-.8-1-1.9-1-3.5V6.6c0-.3-.2-.5-.5-.5h-.8c-.3 0-.5.2-.5.5v10.1c0 2 .5 3.6 1.4 4.7 1 1.1 2.4 1.7 4.2 1.7 1.4 0 2.7-.3 3.6-.8.5-.3.9-.6 1.3-1v1c0 .3.2.5.5.5h.8c.3 0 .5-.2.5-.5V6.6c.1-.4-.1-.5-.4-.5m10.3 15c-1.6.2-2.5.2-2.9-.5-.3-.4-.5-1.2-.5-2.2V7.8h3.1c.3 0 .5-.2.5-.5v-.7c0-.3-.2-.5-.5-.5h-3.1V2.2c0-.3-.2-.5-.5-.5h-.8c-.3 0-.5.2-.5.5V6h-2.4c-.3 0-.5.2-.5.5v.8c0 .3.2.5.5.5h2.4v10.8c0 1.5.3 2.6.9 3.3.6.8 1.5 1.1 2.8 1.1.8 0 1.4-.1 1.8-.2.2-.1.4-.3.3-.6l-.1-.7c0-.3-.3-.4-.5-.4m13.5-5c-.4-.6-1-1.2-1.8-1.6-.8-.4-1.9-.8-3.2-1.1s-2.2-.6-2.9-.9c-.6-.3-1-.6-1.3-.9-.2-.3-.4-.8-.4-1.4 0-.7.3-1.4 1-1.9s1.7-.8 3-.8 2.4.3 3.2 1c.8.6 1.1 1.4 1.1 2.3 0 .3.2.5.5.5h.8c.3 0 .5-.2.5-.5 0-1.5-.6-2.8-1.7-3.7-1.1-.9-2.6-1.3-4.4-1.3-1.7 0-3 .4-4.1 1.2s-1.7 1.9-1.7 3.2.4 2.3 1.3 3.1c.8.7 2.2 1.3 4.3 1.7 3 .6 4.5 1.8 4.5 3.4 0 .8-.4 1.4-1.1 2-.8.6-1.8.9-3.1.9-1.4 0-2.5-.3-3.4-.8-.8-.5-1.2-1.3-1.2-2.2 0-.3-.2-.5-.5-.5h-.8c-.3 0-.5.2-.5.5 0 1.4.6 2.6 1.8 3.5s2.7 1.3 4.6 1.3c1.7 0 3.2-.4 4.3-1.2 1.1-.9 1.7-2 1.7-3.4.1-1-.1-1.7-.5-2.4m14.8-2.6h-4.4V8.8c0-.3-.3-.6-.6-.6h-.6c-.3 0-.6.3-.6.6v4.6h-4.2c-.3 0-.6.3-.6.6v.6c0 .3.3.6.6.6h4.2v4.6c0 .3.3.6.6.6h.6c.3 0 .6-.3.6-.6v-4.6h4.4c.3 0 .6-.3.6-.6v-.5c0-.3-.2-.6-.6-.6"/></svg>