<svg xmlns="http://www.w3.org/2000/svg" viewBox="0 0 314 66.635" fill="#26519e"><path d="M78.768 14.69c-1.873-.454-2.51-.515-5.198-.542-1.805-.014-2.674.007-3.264.08-7.227.904-12.56 4.75-15.12 10.893-.67 1.616-1.214 3.706-1.444 5.525-.054.468-.088 1.513-.088 2.748.007 1.683.034 2.15.163 3.027.672 4.377 2.368 7.9 5.15 10.695 2.817 2.823 6.455 4.533 11.042 5.17 1.295.184 5.13.184 6.48 0 5.408-.732 9.657-3.066 12.575-6.92 1.907-2.52 3.067-5.396 3.61-8.945.136-.875.156-1.344.163-3.027.007-2.64-.183-4.112-.808-6.25-1.895-6.446-6.57-10.843-13.262-12.452zm-.115 22.72c-.63 2.166-1.927 3.543-3.8 4.052-.672.176-2.552.176-3.244-.007-1.175-.312-2.11-.943-2.75-1.846-.935-1.33-1.336-2.756-1.492-5.26-.176-2.87.265-5.402 1.22-7.037.38-.645 1.216-1.432 1.888-1.778 1.215-.63 2.762-.787 4.296-.434 2.253.517 3.61 2.24 4.16 5.274.136.774.156 1.126.156 2.877 0 2.16-.082 2.926-.435 4.16zm89.616-5.8s.026 19.475 0 19.502c-.15.17-5.077.835-7.737 1.052-2.755.224-7.302.292-9.338.143-6.55-.482-11.747-3.067-14.82-7.37-2.81-3.943-3.937-9.548-3.095-15.39.672-4.636 2.816-8.497 6.094-10.988 3.027-2.3 7.173-3.74 11.95-4.154.482-.04.984-.088 1.12-.102.136-.014 1.466-.027 2.96-.034 4.057-.014 7.016.25 10.293.916 1.568.326 1.58.326 1.54.556-.04.17-.91 5.843-1.357 8.8-.095.62-.183 1.14-.197 1.155-.014.014-.46-.034-.984-.115-2.994-.44-5.213-.597-7.696-.543-3.332.074-5.32.528-7.22 1.668-.713.42-1.77 1.425-2.212 2.083-1.01 1.507-1.493 3.625-1.323 5.823.135 1.77.535 3.027 1.37 4.262.91 1.337 2.267 2.2 4.05 2.58.462.094.95.12 2.2.128h1.6v-9.975h12.8zm130.745-16.64V25.8H287.9v25.794h-13.253V25.8h-10.62V14.97h34.988zm-260.72.074H51.48v36.624H38.297V38.843H28.178V51.67H15V15.043h13.178V27.51h10.118V15.044zm81.162 0H131v36.624h-16.332l-8.146-20.27v20.27h-11.65V15.044h16.625l7.93 21.08.03-21.08zm77.646 16.653l12.982 19.97h-16.49l-6.644-11.57-2.693 3.5v8.07h-13.64V15.045h13.606l.034 12.398 9.298-12.398h16.37l-12.822 16.653zm14.766-16.653h13.612v36.624h-13.61V15.044zm29.407 0L227.45 51.668h14.656l1.508-5.985h11.71l1.44 5.985h14.343l-13.064-36.624h-16.766zm4.726 21.193l3.495-13.728 3.413 13.727h-6.907z"/></svg>