<svg xmlns="http://www.w3.org/2000/svg" width="520" height="110" viewBox="0 0 520 110"><path fill="#5333ED" d="M222.7 21.5a41.663 41.663 0 0 0-13.17-9 40.107 40.107 0 0 0-16-3.25 41.352 41.352 0 0 0-15.11 2.83 41.768 41.768 0 0 0-12.94 8l-6.65-7.72a3.808 3.808 0 0 0-2.85-1.31h-.21a3.77 3.77 0 0 0-3.77 3.77v85.41a3.79 3.79 0 0 0 3.77 3.8h16.08a3.79 3.79 0 0 0 3.78-3.8V50.96a17.432 17.432 0 0 1 1.38-6.9 17.68 17.68 0 0 1 3.8-5.68 17.889 17.889 0 0 1 12.73-5.2 17.077 17.077 0 0 1 6.83 1.38 17.869 17.869 0 0 1 9.43 9.49 17.637 17.637 0 0 1 1.38 6.9v49.34a3.8 3.8 0 0 0 3.78 3.8h16.06a3.79 3.79 0 0 0 3.77-3.8V50.96a41.007 41.007 0 0 0-3.24-16.2 42.456 42.456 0 0 0-8.85-13.26zm182.41-10.21h-63.36a3.78 3.78 0 0 0-3.76 3.79v16a3.77 3.77 0 0 0 3.76 3.78h4a3.79 3.79 0 0 1 3.78 3.79v23.82a40.922 40.922 0 0 0 3.23 16.15 42.16 42.16 0 0 0 22.14 22.19 39.994 39.994 0 0 0 16.1 3.26h14.15a3.79 3.79 0 0 0 3.78-3.8v-16a3.78 3.78 0 0 0-3.77-3.79h-14.2a17.622 17.622 0 0 1-7-1.43 18.352 18.352 0 0 1-5.7-3.85 17.794 17.794 0 0 1-3.81-5.69 17.592 17.592 0 0 1-1.37-7V38.69a3.79 3.79 0 0 1 3.77-3.79h28.29a3.78 3.78 0 0 0 3.78-3.78v-16a3.79 3.79 0 0 0-3.75-3.83h-.06zm103-1.72h-.16a3.747 3.747 0 0 0-2.93 1.39l-5.55 6.65a3.76 3.76 0 0 1-5.294.502l-.026-.022a62.953 62.953 0 0 0-4.24-3.29 53.031 53.031 0 0 0-7.92-4.69 46.691 46.691 0 0 0-8.56-3.13 36.218 36.218 0 0 0-8.92-1.13 47.237 47.237 0 0 0-18.4 3.61 45.888 45.888 0 0 0-15.09 10.08 47.871 47.871 0 0 0-10.17 15.58 52.097 52.097 0 0 0-3.71 19.93 54.554 54.554 0 0 0 3.71 20.75 45.204 45.204 0 0 0 10.17 15.41 43.65 43.65 0 0 0 15.06 9.59 50.9 50.9 0 0 0 18.4 3.31 35.347 35.347 0 0 0 8.87-1.14 48.39 48.39 0 0 0 8.53-3.08 52.16 52.16 0 0 0 7.92-4.61c1.42-1 2.78-2 4.11-3.09a3.751 3.751 0 0 1 5.42.73l5.66 7.87a3.769 3.769 0 0 0 6.84-2.22V13.35a3.78 3.78 0 0 0-3.75-3.79l.03.01zm-21.88 54.9a27.157 27.157 0 0 1-5.06 8.07 25.303 25.303 0 0 1-7.49 5.64 20.502 20.502 0 0 1-9.14 2.12 25.257 25.257 0 0 1-9.12-1.65 20.501 20.501 0 0 1-7.44-4.87 22.791 22.791 0 0 1-5-7.93 33.064 33.064 0 0 1 0-21.63 23.135 23.135 0 0 1 5-7.93 20.687 20.687 0 0 1 7.44-4.86 25.347 25.347 0 0 1 9.12-1.65c3.17-.014 6.3.712 9.14 2.12a24.868 24.868 0 0 1 7.49 5.64 27.197 27.197 0 0 1 5.06 8.07 24.997 24.997 0 0 1 0 18.88v-.02zm-458-53.35H11.96a3.78 3.78 0 0 0-3.79 3.77v85.41a3.8 3.8 0 0 0 3.79 3.8H28.2a3.79 3.79 0 0 0 3.78-3.8V14.9a3.78 3.78 0 0 0-3.77-3.78h.02zm66.5 6.44a3.8 3.8 0 0 0-2.86-6.27H73.63a3.75 3.75 0 0 0-2.86 1.33L34.12 55.23a3.77 3.77 0 0 0 0 5l36.65 42.6a3.751 3.751 0 0 0 2.86 1.32h18.22a3.8 3.8 0 0 0 2.86-6.28L62.16 60.22a3.79 3.79 0 0 1 0-5l32.57-37.66zm35.41-6.45h-.2a3.76 3.76 0 0 0-2.86 1.32l-.76.89-15.11 17.51a3.746 3.746 0 0 0-.92 2.48v67a3.78 3.78 0 0 0 3.77 3.79h16.06a3.79 3.79 0 0 0 3.77-3.79V14.9a3.79 3.79 0 0 0-3.77-3.79h.02zm193.16 43.5a28.992 28.992 0 0 0-9.35-5.69 32.013 32.013 0 0 0-11.42-2h-24.61a5.588 5.588 0 0 1-4.16-1.78 5.943 5.943 0 0 1-1.73-4.3 5.92 5.92 0 0 1 5.89-5.9h44.1a3.78 3.78 0 0 0 3.77-3.78V15.08a3.78 3.78 0 0 0-3.77-3.79h-44.11a28.996 28.996 0 0 0-11.52 2.3 29.187 29.187 0 0 0-15.61 15.66 30.148 30.148 0 0 0 0 23.1 29.729 29.729 0 0 0 15.61 15.8 28.465 28.465 0 0 0 11.52 2.34h25.38a5.06 5.06 0 0 1 5.07 4.53 5 5 0 0 1-5 5.45h-51.12a3.77 3.77 0 0 0-3.76 3.78v16a3.77 3.77 0 0 0 3.76 3.78h50.24a29.184 29.184 0 0 0 20.77-8.63 30.678 30.678 0 0 0 6.32-9.38 28.633 28.633 0 0 0 2.34-11.5 26.582 26.582 0 0 0-2.34-11.19 27.301 27.301 0 0 0-6.29-8.71l.02-.01z"/></svg>