<svg xmlns="http://www.w3.org/2000/svg" viewBox="0 0 550 80"><path fill="#26519E" d="M125.26 4.41c-3.58-.87-4.8-.98-9.95-1.03-3.45-.03-5.12.01-6.24.15-13.84 1.73-24.04 9.1-28.94 20.85a43.83 43.83 0 0 0-2.77 10.57c-.1.9-.16 2.9-.16 5.26.01 3.22.06 4.12.3 5.8 1.3 8.37 4.54 15.11 9.86 20.46 5.4 5.4 12.36 8.68 21.14 9.9 2.48.35 9.82.35 12.4 0 10.35-1.4 18.48-5.87 24.07-13.25 3.65-4.82 5.87-10.32 6.9-17.12.27-1.67.3-2.57.32-5.79.01-5.05-.35-7.87-1.55-11.96-3.62-12.34-12.57-20.75-25.38-23.83zm-.22 43.49c-1.2 4.14-3.69 6.78-7.27 7.75-1.29.34-4.89.34-6.21-.01a9.15 9.15 0 0 1-5.26-3.53c-1.8-2.55-2.56-5.28-2.86-10.07-.34-5.5.5-10.34 2.34-13.47a10.42 10.42 0 0 1 3.6-3.4c2.33-1.2 5.3-1.5 8.23-.83 4.31.99 6.91 4.28 7.96 10.1.26 1.47.3 2.15.3 5.5 0 4.13-.16 5.6-.83 7.96zm171.51-11.1s.05 37.27 0 37.32c-.28.33-9.71 1.6-14.8 2.01-5.28.43-13.98.56-17.88.28-12.53-.92-22.48-5.87-28.36-14.1-5.38-7.55-7.53-18.28-5.92-29.46 1.28-8.87 5.39-16.26 11.66-21.03 5.8-4.4 13.73-7.16 22.87-7.95l2.14-.2c.26-.02 2.81-.05 5.67-.06 7.76-.03 13.43.48 19.7 1.75 3 .63 3.02.63 2.95 1.07-.08.32-1.75 11.18-2.6 16.84a33.97 33.97 0 0 1-.38 2.2c-.03.04-.88-.06-1.88-.21a83 83 0 0 0-14.73-1.04c-6.38.14-10.18 1.01-13.82 3.2a16.5 16.5 0 0 0-4.23 3.98c-1.93 2.88-2.86 6.94-2.53 11.14.26 3.4 1.02 5.8 2.62 8.16 1.74 2.56 4.34 4.21 7.75 4.94.88.18 1.82.23 4.21.24h3.06V36.8h24.5zM546.78 4.95v20.73H525.5v49.36h-25.37V25.68h-20.32V4.95h66.96zM47.8 5.09h25.24v70.1H47.8V50.63H28.44v24.55H3.22V5.09h25.22v23.86H47.8V5.09zm155.33 0h22.1v70.1h-31.26l-15.6-38.8v38.8h-22.29V5.08h31.82l15.18 40.34.05-40.34zm148.6 31.87l24.85 38.22h-31.56l-12.71-22.14-5.16 6.7v15.44h-26.1V5.1h26.04l.06 23.73 17.8-23.73h31.33l-24.54 31.87zM380 5.1h26.06v70.1H380V5.08zm56.29 0l-26.46 70.1h28.05l2.88-11.46h22.41l2.76 11.45h27.45l-25-70.09h-32.1zm9.04 40.56l6.69-26.27 6.53 26.27h-13.22z"/></svg>