<svg id="Layer_1" xmlns="http://www.w3.org/2000/svg" viewBox="0 0 541.2 176.2"><style>.st0{fill:#ec670f}</style><path class="st0" d="M22.7 145.4H0V4.5h54.6c32.5 0 49.9 16.4 49.9 42.8S87.1 90.1 54.6 90.1H22.7v55.3zm0-76.8H54c18.5 0 26.9-6.7 26.9-21.3S72.6 25.9 54 25.9H22.7v42.7zm161.4 76.8v-11.6c-6.7 8.6-16.5 14.1-30.3 14.1-27 0-48.2-21.2-48.2-50.7 0-29.5 21.2-50.7 48.2-50.7 13.8 0 23.5 5.6 30.3 14.2V49h21v96.4h-21zm-56.9-48.2c0 16.9 11 30.9 29.1 30.9 17.3 0 29.1-13.3 29.1-30.9 0-17.6-11.8-30.9-29.1-30.9-18.1 0-29.1 14-29.1 30.9zm175.6-35.4l-13.5 14.4c-6.8-6.4-13.9-10-23.1-10-16.2 0-28.5 12.7-28.5 30.9S250 128 266.2 128c9.3 0 17.5-4.3 23.6-10.1l13 14.5c-8.9 10.2-21.5 15.4-36 15.4-30.6 0-50.7-21.8-50.7-50.7 0-28.9 20.1-50.7 50.7-50.7 14.5 0 27.5 5.3 36 15.4zm29.6 42.9v40.7h-21.1V.5l21.1-.5v85.1m95.6 60.3V68.1h-19.2V49H428V19.8h21.1V49h19.3v19.1h-19.3v77.3H428zm-91.6-51l7.8-8.8L376 49h26.5l-40.4 45.3 40.8 51.1h-26.7l-32.1-40.7-7.7-10.3zm197.1 10.3l-32.1 40.7h-26.7l40.8-51.1L475.1 49h26.5l31.8 36.6 7.8 8.8-7.7 10.3zm7.7 71.5H0v-14h541.2v14z"/></svg>