<?xml version="1.0" encoding="utf-8"?>
<!-- Generator: Adobe Illustrator 17.0.0, SVG Export Plug-In . SVG Version: 6.00 Build 0)  -->
<!DOCTYPE svg PUBLIC "-//W3C//DTD SVG 1.1//EN" "http://www.w3.org/Graphics/SVG/1.1/DTD/svg11.dtd">
<svg version="1.1" id="Layer_1" xmlns="http://www.w3.org/2000/svg" xmlns:xlink="http://www.w3.org/1999/xlink" x="0px" y="0px"
	 width="520px" height="110px" viewBox="0 0 520 110" enable-background="new 0 0 520 110" xml:space="preserve">
<path fill="#5333ED" d="M222.7,21.5c-3.769-3.82-8.241-6.876-13.17-9c-5.054-2.169-10.5-3.275-16-3.25
	c-5.169-0.009-10.294,0.95-15.11,2.83c-4.767,1.852-9.153,4.564-12.94,8l-6.65-7.72c-0.718-0.826-1.756-1.303-2.85-1.31h-0.21
	c-2.082,0-3.77,1.688-3.77,3.77c0,0.003,0,0.007,0,0.01v85.4c-0.006,2.089,1.681,3.789,3.77,3.8h16.08
	c2.093-0.006,3.786-1.707,3.78-3.8l0,0V50.96c-0.014-2.37,0.456-4.718,1.38-6.9c0.885-2.122,2.176-4.052,3.8-5.68
	c3.381-3.36,7.963-5.232,12.73-5.2c2.347-0.014,4.672,0.455,6.83,1.38c4.254,1.823,7.634,5.225,9.43,9.49
	c0.919,2.184,1.388,4.531,1.38,6.9v49.34c0,2.091,1.689,3.789,3.78,3.8h16.06c2.089-0.011,3.776-1.711,3.77-3.8V50.96
	c0.03-5.564-1.072-11.076-3.24-16.2C229.464,29.821,226.461,25.322,222.7,21.5z M405.11,11.29h-63.36
	c-2.084,0.011-3.766,1.706-3.76,3.79v16c-0.006,2.082,1.678,3.774,3.76,3.78h0h4c2.089,0.006,3.78,1.701,3.78,3.79v23.82
	c-0.029,5.547,1.07,11.041,3.23,16.15c4.254,9.967,12.182,17.914,22.14,22.19c5.083,2.189,10.566,3.299,16.1,3.26h14.15
	c2.093-0.005,3.786-1.707,3.78-3.8v0v-16c0.006-2.088-1.682-3.784-3.77-3.79c-0.003,0-0.007,0-0.01,0h-14.19
	c-2.406,0.006-4.789-0.48-7-1.43c-2.126-0.913-4.06-2.219-5.7-3.85c-1.627-1.632-2.92-3.565-3.81-5.69
	c-0.93-2.215-1.396-4.598-1.37-7V38.69c0-2.085,1.685-3.779,3.77-3.79h28.29c2.088,0,3.78-1.692,3.78-3.78v0v-16
	c0.022-2.093-1.657-3.808-3.75-3.83C405.15,11.29,405.13,11.29,405.11,11.29L405.11,11.29z M508.11,9.57h-0.16
	c-1.137-0.005-2.215,0.506-2.93,1.39l-5.55,6.65c-1.323,1.6-3.693,1.825-5.294,0.502c-0.009-0.007-0.018-0.015-0.026-0.022
	c-1.35-1.15-2.77-2.24-4.24-3.29c-2.499-1.79-5.149-3.359-7.92-4.69c-2.744-1.32-5.611-2.368-8.56-3.13
	c-2.915-0.746-5.911-1.125-8.92-1.13c-6.313-0.038-12.57,1.189-18.4,3.61c-5.651,2.322-10.781,5.749-15.09,10.08
	c-4.376,4.478-7.832,9.772-10.17,15.58c-2.53,6.336-3.79,13.108-3.71,19.93c-0.124,7.092,1.136,14.14,3.71,20.75
	c2.294,5.782,5.756,11.028,10.17,15.41c4.305,4.2,9.433,7.465,15.06,9.59c5.876,2.23,12.115,3.352,18.4,3.31
	c2.993-0.003,5.974-0.386,8.87-1.14c2.934-0.757,5.789-1.789,8.53-3.08c2.77-1.301,5.42-2.844,7.92-4.61c1.42-1,2.78-2,4.11-3.09
	c1.606-1.307,3.968-1.065,5.276,0.541c0.05,0.062,0.098,0.125,0.144,0.189l5.66,7.87c1.208,1.696,3.562,2.091,5.258,0.882
	c1.002-0.714,1.592-1.872,1.582-3.102V13.35c0.006-2.08-1.67-3.774-3.75-3.79L508.11,9.57z M486.23,64.47
	c-1.198,2.967-2.911,5.699-5.06,8.07c-2.123,2.33-4.664,4.243-7.49,5.64c-2.842,1.404-5.97,2.129-9.14,2.12
	c-3.116,0.017-6.208-0.542-9.12-1.65c-2.806-1.059-5.346-2.722-7.44-4.87c-2.198-2.268-3.901-4.969-5-7.93
	c-2.425-7.006-2.425-14.624,0-21.63c1.108-2.957,2.81-5.656,5-7.93c2.099-2.14,4.637-3.798,7.44-4.86
	c2.913-1.106,6.004-1.665,9.12-1.65c3.17-0.014,6.3,0.712,9.14,2.12c2.832,1.388,5.373,3.302,7.49,5.64
	c2.148,2.371,3.861,5.103,5.06,8.07c2.468,6.051,2.468,12.829,0,18.88V64.47z M28.23,11.12H11.96
	c-2.088-0.006-3.784,1.682-3.79,3.77c0,0.003,0,0.007,0,0.01v85.4c0,2.095,1.695,3.794,3.79,3.8H28.2
	c2.093-0.006,3.786-1.707,3.78-3.8l0,0V14.9c0-2.084-1.686-3.774-3.77-3.78H28.23z M94.73,17.56
	c1.364-1.595,1.177-3.994-0.418-5.358c-0.681-0.583-1.546-0.906-2.442-0.912H73.63c-1.102,0.001-2.149,0.488-2.86,1.33L34.12,55.23
	c-1.264,1.427-1.264,3.573,0,5l36.65,42.6c0.713,0.838,1.759,1.321,2.86,1.32h18.22c2.099-0.011,3.791-1.72,3.781-3.819
	c-0.005-0.904-0.331-1.776-0.921-2.461L62.16,60.22c-1.255-1.43-1.255-3.57,0-5L94.73,17.56z M130.14,11.11h-0.2
	c-1.101,0-2.146,0.483-2.86,1.32l-0.76,0.89l-15.11,17.51c-0.598,0.687-0.925,1.569-0.92,2.48v67
	c-0.006,2.088,1.682,3.784,3.77,3.79c0,0,0,0,0,0h16.06c2.085-0.011,3.77-1.705,3.77-3.79V14.9c0-2.085-1.685-3.779-3.77-3.79
	H130.14z M323.3,54.61c-2.727-2.473-5.9-4.404-9.35-5.69c-3.653-1.356-7.523-2.034-11.42-2h-24.61
	c-1.576,0.02-3.086-0.627-4.16-1.78c-1.135-1.14-1.759-2.692-1.73-4.3c0.011-3.25,2.64-5.884,5.89-5.9h44.1
	c2.084-0.006,3.77-1.696,3.77-3.78V15.08c0.006-2.088-1.682-3.784-3.77-3.79h0h-44.11c-3.957-0.027-7.877,0.755-11.52,2.3
	c-7.056,2.971-12.662,8.595-15.61,15.66c-3.067,7.395-3.067,15.705,0,23.1c2.967,7.086,8.561,12.748,15.61,15.8
	c3.635,1.573,7.559,2.37,11.52,2.34h25.38c2.604-0.019,4.797,1.94,5.07,4.53c0.249,2.75-1.779,5.181-4.53,5.43
	c-0.156,0.014-0.313,0.021-0.47,0.02h-51.12c-2.082,0.006-3.766,1.698-3.76,3.78v0v16c-0.006,2.082,1.678,3.774,3.76,3.78h0h50.24
	c7.798,0.014,15.278-3.094,20.77-8.63c2.67-2.708,4.813-5.889,6.32-9.38c1.566-3.631,2.362-7.546,2.34-11.5
	c0.041-3.856-0.758-7.674-2.34-11.19c-1.499-3.291-3.637-6.252-6.29-8.71L323.3,54.61z"/>
</svg>
